<?xml version="1.0" encoding="utf-8"?>
<svg xmlns="http://www.w3.org/2000/svg" style="margin: auto; display: block; shape-rendering: auto;" width="286" height="100" preserveAspectRatio="xMidYMid">
<style type="text/css">
  text {
    text-anchor: middle; font-size: 80px; opacity: 0;
  }
</style>
<g style="transform-origin:143px 50px;transform:scale(1)">
<g transform="translate(143,50)">
  <g transform="translate(0,0)"><g class="path" style="transform: matrix(1, 0, 0, 1, 0, 14.925); opacity: 0.05; transform-origin: -113.84px 0.363731px; animation: 3.33333s linear 0s 1 normal forwards running float-btt-in-f568130b-5b0f-4767-84d4-86240ffc4cd0;"><path d="M6-14.80L6-14.80L6.16-30.96L6.16-30.96Q6.16-49.92 4.32-52.40L4.32-52.40L4.32-52.40Q3.44-53.52 3.44-53.96L3.44-53.96L3.44-53.96Q3.44-54.40 4.52-55L4.52-55L4.52-55Q5.60-55.60 8.72-56.32L8.72-56.32L8.72-56.32Q11.84-57.04 14.24-57.04L14.24-57.04L14.24-57.04Q16.64-57.04 16.64-55.92L16.64-55.92L16.48-54.88L16.48-54.88Q15.52-46.24 15.52-38L15.52-38L15.52-38Q15.52-29.76 16-19.60L16-19.60L16-19.60Q16.48-9.44 16.48-4.64L16.48-4.64L16.48-4.64Q16.48 1.84 11.48 6.52L11.48 6.52L11.48 6.52Q6.48 11.20-0.40 11.60L-0.40 11.60L-0.40 11.60Q-1.76 11.44-1.76 10.64L-1.76 10.64L-1.76 10.64Q-1.76 10.08-1.40 9.76L-1.40 9.76L-1.40 9.76Q-1.04 9.44-0.56 8.96L-0.56 8.96L-0.56 8.96Q-0.08 8.48 1.20 6.48L1.20 6.48L1.20 6.48Q2.48 4.48 3.44 1.96L3.44 1.96L3.44 1.96Q4.40-0.56 5.20-5.04L5.20-5.04L5.20-5.04Q6-9.52 6-14.80" fill="#fc4309" stroke="none" stroke-width="none" transform="translate(-121.28000450134277,23.08373282114665)" style="fill: rgb(252, 67, 9);"></path></g><g class="path" style="transform: matrix(1, 0, 0, 1, 0, 14.925); opacity: 0.05; transform-origin: -79.68px -4.83627px; animation: 3.33333s linear 0.366667s 1 normal forwards running float-btt-in-f568130b-5b0f-4767-84d4-86240ffc4cd0;"><path d="M44.24-48.96L44.24-48.96L44.24-48.96Q46.32-51.60 48.44-53.88L48.44-53.88L48.44-53.88Q50.56-56.16 51.92-56.72L51.92-56.72L51.92-56.72Q53.28-57.28 57.44-57.28L57.44-57.28L57.44-57.28Q61.60-57.28 61.60-56.24L61.60-56.24L61.60-56.24Q61.60-55.84 60.72-55.36L60.72-55.36L60.72-55.36Q59.84-54.88 58.32-53.84L58.32-53.84L58.32-53.84Q56.80-52.80 51.96-48.16L51.96-48.16L51.96-48.16Q47.12-43.52 42.24-37.28L42.24-37.28L42.24-37.28Q42.08-37.12 42.08-36.84L42.08-36.84L42.08-36.84Q42.08-36.56 42.52-36.48L42.52-36.48L42.52-36.48Q42.96-36.40 43.76-36.24L43.76-36.24L43.76-36.24Q44.56-36.08 46.68-35L46.68-35L46.68-35Q48.80-33.92 50.48-32.28L50.48-32.28L50.48-32.28Q52.16-30.64 53.72-27.24L53.72-27.24L53.72-27.24Q55.28-23.84 55.52-20.84L55.52-20.84L55.52-20.84Q55.76-17.84 56-15.44L56-15.44L56-15.44Q56.24-13.04 57.24-8.56L57.24-8.56L57.24-8.56Q58.24-4.08 59.60-3.20L59.60-3.20L59.60-3.20Q60-2.88 60-2.40L60-2.40L60-2.40Q60-1.12 56.48-0.04L56.48-0.04L56.48-0.04Q52.96 1.04 50.20 1.04L50.20 1.04L50.20 1.04Q47.44 1.04 47.04-1.20L47.04-1.20L47.04-1.20Q46.64-3.60 46.48-12.64L46.48-12.64L46.48-15.84L46.48-15.84Q46.48-24.24 44.08-28L44.08-28L44.08-28Q42-31.28 40.32-31.68L40.32-31.68L40.32-31.68Q39.04-32.08 38.96-32.08L38.96-32.08L38.08-31.68L38.08-31.68Q36.16-29.44 35.04-27.36L35.04-27.36L35.04-27.36Q33.92-25.28 33.84-24.32L33.84-24.32L33.68-23.28L33.68-23.28Q33.68-12 34.64-4L34.64-4L34.64-4Q34.80-3.04 34.80-2.88L34.80-2.88L34.80-2.88Q34.80-1.12 31.08 0.16L31.08 0.16L31.08 0.16Q27.36 1.44 25 1.44L25 1.44L25 1.44Q22.64 1.44 22.64 0.72L22.64 0.72L22.64 0.72Q22.64 0.24 22.88-0.48L22.88-0.48L22.88-0.48Q23.68-2.24 24.04-12.12L24.04-12.12L24.04-12.12Q24.40-22 24.40-30.12L24.40-30.12L24.40-30.12Q24.40-38.24 24.08-43.28L24.08-43.28L24.08-43.28Q23.60-50.88 22.48-52.40L22.48-52.40L22.48-52.40Q21.60-53.52 21.60-53.84L21.60-53.84L21.60-53.84Q21.60-54.96 25.72-56L25.72-56L25.72-56Q29.84-57.04 32.36-57.04L32.36-57.04L32.36-57.04Q34.88-57.04 34.88-55.92L34.88-55.92L34.80-54.88L34.80-54.88Q33.76-46.24 33.76-36.40L33.76-36.40L33.76-36.40Q33.76-35.60 34.12-35.60L34.12-35.60L34.12-35.60Q34.48-35.60 34.96-36.32L34.96-36.32L34.96-36.32Q35.44-37.04 36.36-38.32L36.36-38.32L36.36-38.32Q37.28-39.60 39.72-42.96L39.72-42.96L39.72-42.96Q42.16-46.32 44.24-48.96" fill="#fc4309" stroke="none" stroke-width="none" transform="translate(-121.28000450134277,23.08373282114665)" style="fill: rgb(255, 118, 92);"></path></g><g class="path" style="transform: matrix(1, 0, 0, 1, 0, 14.925); opacity: 0.05; transform-origin: -40.84px -4.87627px; animation: 3.33333s linear 0.733333s 1 normal forwards running float-btt-in-f568130b-5b0f-4767-84d4-86240ffc4cd0;"><path d="M79.92-33.52L79.92-33.52L79.92-33.52Q80.24-33.52 81.12-32.88L81.12-32.88L81.12-32.88Q82-32.24 82.96-32.24L82.96-32.24L83.04-32.24L83.04-32.24Q85.76-32.24 87.36-34.40L87.36-34.40L87.36-34.40Q88.96-36.56 89.12-38.72L89.12-38.72L89.36-40.88L89.36-40.88Q89.36-43.92 88.44-46.12L88.44-46.12L88.44-46.12Q87.52-48.32 86.32-49.40L86.32-49.40L86.32-49.40Q85.12-50.48 83.52-51.04L83.52-51.04L83.52-51.04Q81.52-51.84 79.32-51.84L79.32-51.84L79.32-51.84Q77.12-51.84 75.76-51.40L75.76-51.40L75.76-51.40Q74.40-50.96 74.24-50.56L74.24-50.56L74.16-50.08L74.16-50.08Q73.44-39.28 73.44-30.76L73.44-30.76L73.44-30.76Q73.44-22.24 73.72-16.08L73.72-16.08L73.72-16.08Q74-9.92 74.28-6.60L74.28-6.60L74.28-6.60Q74.56-3.28 74.56-2.96L74.56-2.96L74.56-2.96Q74.56-0.96 71.04 0.24L71.04 0.24L71.04 0.24Q67.52 1.44 64.08 1.44L64.08 1.44L64.08 1.44Q62.48 1.44 62.48 0.64L62.48 0.64L62.48 0.64Q62.48 0.40 62.72-0.48L62.72-0.48L62.72-0.48Q64.24-4 64.24-33.20L64.24-33.20L64.24-33.20Q64.24-50.40 61.92-52.88L61.92-52.88L61.92-52.88Q61.44-53.36 61.44-53.88L61.44-53.88L61.44-53.88Q61.44-54.40 62.60-55.04L62.60-55.04L62.60-55.04Q63.76-55.68 69.12-56.52L69.12-56.52L69.12-56.52Q74.48-57.36 80.48-57.36L80.48-57.36L80.48-57.36Q89.92-57.36 94.68-52.24L94.68-52.24L94.68-52.24Q99.44-47.12 99.44-40.04L99.44-40.04L99.44-40.04Q99.44-32.96 95.56-27.76L95.56-27.76L95.56-27.76Q91.68-22.56 85.44-22.56L85.44-22.56L85.44-22.56Q83.44-22.56 81.44-23.28L81.44-23.28L81.44-23.28Q77.44-24.72 77.44-29.28L77.44-29.28L77.44-29.28Q77.44-30.24 78.08-31.88L78.08-31.88L78.08-31.88Q78.72-33.52 79.92-33.52" fill="#fc4309" stroke="none" stroke-width="none" transform="translate(-121.28000450134277,23.08373282114665)" style="fill: rgb(255, 182, 70);"></path></g><g class="path" style="transform: matrix(1, 0, 0, 1, 0, 14.925); opacity: 0.05; transform-origin: 13.56px -4.83627px; animation: 3.33333s linear 1.1s 1 normal forwards running float-btt-in-f568130b-5b0f-4767-84d4-86240ffc4cd0;"><path d="M129.20-35.44L129.20-35.44L129.20-34.32L143.36-34.32L143.36-34.48L143.36-34.48Q143.44-36.40 143.44-39.32L143.44-39.32L143.44-39.32Q143.44-42.24 143.36-44.44L143.36-44.44L143.36-44.44Q143.28-46.64 143.20-48.16L143.20-48.16L143.20-48.16Q143.12-49.68 143-50.80L143-50.80L143-50.80Q142.88-51.92 142.80-52.52L142.80-52.52L142.80-52.52Q142.72-53.12 142.72-53.60L142.72-53.60L142.72-53.60Q142.72-54.08 143.60-54.72L143.60-54.72L143.60-54.72Q147.44-57.28 152.16-57.28L152.16-57.28L152.16-57.28Q155.12-57.28 155.12-56.24L155.12-56.24L155.12-56.24Q155.12-56.16 154.96-55.36L154.96-55.36L154.96-55.36Q153.44-47.76 153.04-34.32L153.04-34.32L153.04-34.32Q152.80-20.88 152.80-19.92L152.80-19.92L152.80-19.92Q152.80-7.52 154.24-2.72L154.24-2.72L154.24-2.72Q154.48-2.08 154.48-1.64L154.48-1.64L154.48-1.64Q154.48-1.20 153.84-0.64L153.84-0.64L153.84-0.64Q150.88 1.28 146.16 1.28L146.16 1.28L146.16 1.28Q143.12 1.28 142.72-0.80L142.72-0.80L142.72-0.80Q142.48-1.92 142.48-4.28L142.48-4.28L142.48-4.28Q142.48-6.64 142.76-11.52L142.76-11.52L142.76-11.52Q143.04-16.40 143.20-28.56L143.20-28.56L129.20-28.56L129.20-28.56Q129.20-10.32 130.32-2.96L130.32-2.96L130.32-2.96Q130.32-1.04 126.64 0.20L126.64 0.20L126.64 0.20Q122.96 1.44 120.56 1.44L120.56 1.44L120.56 1.44Q118.16 1.44 118.16 0.72L118.16 0.72L118.16 0.72Q118.16 0.24 118.40-0.48L118.40-0.48L118.40-0.48Q119.92-3.84 119.92-27.52L119.92-27.52L119.92-28.56L115.20-28.56L115.20-28.56Q114.56-28.56 114.56-29.04L114.56-29.04L114.56-29.04Q114.56-29.20 114.88-30.28L114.88-30.28L114.88-30.28Q115.20-31.36 116.36-32.80L116.36-32.80L116.36-32.80Q117.52-34.24 118.96-34.24L118.96-34.24L119.84-34.24L119.84-34.24Q119.84-50 118.00-52.40L118.00-52.40L117.68-52.88L117.68-52.88Q117.20-53.28 117.20-53.88L117.20-53.88L117.20-53.88Q117.20-54.48 118.08-54.88L118.08-54.88L118.08-54.88Q119.28-55.60 122.36-56.32L122.36-56.32L122.36-56.32Q125.44-57.04 127.92-57.04L127.92-57.04L127.92-57.04Q130.40-57.04 130.40-55.92L130.40-55.92L130.40-55.68L130.40-55.68Q129.44-47.36 129.20-35.44" fill="#fc4309" stroke="none" stroke-width="none" transform="translate(-121.28000450134277,23.08373282114665)" style="fill: rgb(255, 153, 0);"></path></g><g class="path" style="transform: matrix(1, 0, 0, 1, 0, 14.925); opacity: 0.05; transform-origin: 57.64px -4.71627px; animation: 3.33333s linear 1.46667s 1 normal forwards running float-btt-in-f568130b-5b0f-4767-84d4-86240ffc4cd0;"><path d="M188.48-52L188.48-52L188.16-54.96L188.16-54.96Q188.16-56.40 191.84-57L191.84-57L191.84-57Q195.52-57.60 199.04-57.60L199.04-57.60L199.04-57.60Q202.56-57.60 202.56-56.40L202.56-56.40L202.56-56.40Q202.56-55.84 201.76-55.04L201.76-55.04L201.76-55.04Q198.64-51.76 194.20-44.32L194.20-44.32L194.20-44.32Q189.76-36.88 186.88-31.04L186.88-31.04L184.00-25.28L184.00-25.28Q182.56-22.24 182.56-18.60L182.56-18.60L182.56-18.60Q182.56-14.96 182.80-11.40L182.80-11.40L182.80-11.40Q183.04-7.84 183.28-5.36L183.28-5.36L183.28-5.36Q183.52-2.88 183.52-2.48L183.52-2.48L183.52-2.48Q183.52-0.48 179.84 0.76L179.84 0.76L179.84 0.76Q176.16 2 173.80 2L173.80 2L173.80 2Q171.44 2 171.44 1.12L171.44 1.12L171.68 0.08L171.68 0.08Q173.04-7.20 173.04-17.20L173.04-17.20L173.04-17.20Q173.04-19.68 172.24-23.36L172.24-23.36L172.00-24.40L172.00-24.40Q166.88-38.24 162.40-44.80L162.40-44.80L162.40-44.80Q158.56-50.64 156.80-51.68L156.80-51.68L156.08-52.16L156.08-52.16Q155.28-52.64 155.28-53.28L155.28-53.28L155.28-53.28Q155.28-54.64 159.44-56.08L159.44-56.08L159.44-56.08Q163.60-57.52 165.72-57.52L165.72-57.52L165.72-57.52Q167.84-57.52 168.56-56.24L168.56-56.24L168.56-56.24Q175.76-41.20 179.76-31.92L179.76-31.92L179.76-31.92Q180.00-31.44 180.44-31.44L180.44-31.44L180.44-31.44Q180.88-31.44 181.48-32.40L181.48-32.40L181.48-32.40Q182.08-33.36 183.28-35.44L183.28-35.44L183.28-35.44Q184.48-37.52 186.48-42.84L186.48-42.84L186.48-42.84Q188.48-48.16 188.48-52" fill="#fc4309" stroke="none" stroke-width="none" transform="translate(-121.28000450134277,23.08373282114665)" style="fill: rgb(255, 102, 0);"></path></g><g class="path" style="transform: matrix(1, 0, 0, 1, 0, 14.925); opacity: 0.05; transform-origin: 100.16px -5.03627px; animation: 3.33333s linear 1.83333s 1 normal forwards running float-btt-in-f568130b-5b0f-4767-84d4-86240ffc4cd0;"><path d="M218.80-51.84L218.80-51.84L218.80-51.84Q217.36-51.84 216.32-51.36L216.32-51.36L216.32-51.36Q215.28-50.88 215.28-50.16L215.28-50.16L215.28-50.16Q214.32-46.80 214.32-30.12L214.32-30.12L214.32-30.12Q214.32-13.44 214.24-11.44L214.24-11.44L214.24-11.44Q215.76-9.04 218.96-9.04L218.96-9.04L218.96-9.04Q224.64-9.04 227.52-15.32L227.52-15.32L227.52-15.32Q230.40-21.60 230.40-31.08L230.40-31.08L230.40-31.08Q230.40-40.56 227.60-46.20L227.60-46.20L227.60-46.20Q224.80-51.84 218.80-51.84zM203.52 0.88L203.52 0.88L203.52 0.88Q202.32 0.72 202.32 0.16L202.32 0.16L202.56-0.80L202.56-0.80Q204.56-5.12 204.56-31.92L204.56-31.92L204.56-31.92Q204.56-44.72 203.88-47.92L203.88-47.92L203.88-47.92Q203.20-51.12 202.80-52L202.80-52L202.40-52.80L202.40-52.80Q202.08-53.12 202.08-53.72L202.08-53.72L202.08-53.72Q202.08-54.32 203.04-54.72L203.04-54.72L203.04-54.72Q209.28-57.20 219.44-57.20L219.44-57.20L219.44-57.20Q240.80-57.20 240.80-30L240.80-30L240.80-30Q240.80-19.36 237.04-10.56L237.04-10.56L237.04-10.56Q235.52-7.20 233.52-4.76L233.52-4.76L233.52-4.76Q231.52-2.32 228.28-0.68L228.28-0.68L228.28-0.68Q225.04 0.96 221.12 0.96L221.12 0.96L221.12 0.96Q220.32 0.88 219.08 0.72L219.08 0.72L219.08 0.72Q217.84 0.56 215.40-0.48L215.40-0.48L215.40-0.48Q212.96-1.52 212.08-3.20L212.08-3.20L212.08-3.20Q209.12 0.88 203.52 0.88" fill="#fc4309" stroke="none" stroke-width="none" transform="translate(-121.28000450134277,23.08373282114665)" style="fill: rgb(252, 67, 9);"></path></g></g>
</g>
</g>
<style id="float-btt-in-f568130b-5b0f-4767-84d4-86240ffc4cd0" data-anikit="">@keyframes float-btt-in-f568130b-5b0f-4767-84d4-86240ffc4cd0
{
  0% {
    animation-timing-function: cubic-bezier(0.2242,0.7499,0.3142,0.8148);
    transform: translate(0px,14.925px) rotate(0deg) scale(1,1) skewX(0deg) skewY(0deg);
    opacity: 0.05;
  }
  100% {
    transform: translate(0px,0px) rotate(0deg) scale(1,1) skewX(0deg) skewY(0deg);
    opacity: 1;
  }
}</style></svg>