<svg width="369.1100219726562px" height="120.8px" xmlns="http://www.w3.org/2000/svg" viewBox="65.44498901367189 14.600000000000001 369.1100219726562 120.8" style="background: rgba(242, 237, 219, 0);" preserveAspectRatio="xMidYMid"><defs><filter id="editing-vintage" x="-100%" y="-100%" width="300%" height="300%"><feConvolveMatrix in="SourceGraphic" result="extrude" order="9,9" divisor="1" kernelMatrix="1,0,0,0,0,0,0,0,0,0,1,0,0,0,0,0,0,0,0,0,1,0,0,0,0,0,0,0,0,0,1,0,0,0,0,0,0,0,0,0,1,0,0,0,0,0,0,0,0,0,1,0,0,0,0,0,0,0,0,0,1,0,0,0,0,0,0,0,0,0,1,0,0,0,0,0,0,0,0,0,1"> </feConvolveMatrix><feFlood flood-color="#900" result="flood-extrude"></feFlood><feComposite operator="in" in="flood-extrude" in2="extrude" result="extrude-color"></feComposite><feOffset dx="5" dy="5" in="extrude-color" result="extrude-offset"></feOffset><feColorMatrix in="SourceGraphic" result="stroke" type="matrix" values="0 0 0 0 0 0 0 0 0 0 0 0 0 0 0 0 1 0 0 0 "></feColorMatrix><feColorMatrix in="SourceGraphic" result="fill" type="matrix" values="0 0 0 0 0 0 0 0 0 0 0 0 0 0 0 1 0 0 1 0 "></feColorMatrix><feConvolveMatrix in="stroke" result="inner-shadow" order="5,5" divisor="1" kernelMatrix="1 0 0 0 0 0 1 0 0 0 0 0 1 0 0 0 0 0 1 0 0 0 0 0 1 "></feConvolveMatrix><feOffset dx="1" dy="1" in="inner-shadow" result="offset"></feOffset><feComposite operator="in" in="offset" in2="SourceAlpha" result="comp"></feComposite><feFlood flood-color="#000" result="flood3"></feFlood><feComposite operator="in" in="flood3" in2="comp" result="comp2"></feComposite><feColorMatrix in="comp2" result="comp3" type="matrix" values="1 0 0 0 0 0 1 0 0 0 0 0 1 0 0 0 0 0 0.5 0 "></feColorMatrix><feFlood flood-color="#f00" result="flood1"></feFlood><feComposite operator="in" in="flood1" in2="fill" result="fill2"></feComposite><feFlood flood-color="#fff" result="flood2"></feFlood><feComposite operator="in" in="flood2" in2="stroke" result="stroke2"></feComposite><feMerge result="obj"><feMergeNode in="extrude-offset"></feMergeNode><feMergeNode in="fill2"></feMergeNode><feMergeNode in="comp3"></feMergeNode></feMerge><feConvolveMatrix in="SourceAlpha" result="shadow" order="9,9" divisor="1" kernelMatrix="1,0,0,0,0,0,0,0,0,0,1,0,0,0,0,0,0,0,0,0,1,0,0,0,0,0,0,0,0,0,1,0,0,0,0,0,0,0,0,0,1,0,0,0,0,0,0,0,0,0,1,0,0,0,0,0,0,0,0,0,1,0,0,0,0,0,0,0,0,0,1,0,0,0,0,0,0,0,0,0,1"></feConvolveMatrix><feOffset dx="15" dy="15" in="shadow" result="shadow-offset"></feOffset><feFlood flood-color="#444444" result="flood-shadow"></feFlood><feComposite operator="in" in="flood-shadow" in2="shadow-offset" result="shadow-color"></feComposite><feMerge><feMergeNode in="shadow-color"></feMergeNode><feMergeNode in="obj"></feMergeNode></feMerge></filter></defs><g transform="translate(-9,-9)"><g filter="url(#editing-vintage)"><g transform="translate(126.21561098098755, 102.77499961853027)"><path d="M-6.98 8.83L-6.98 8.83L-6.98 8.83Q-3.71 8.45-1.66 4.22L-1.66 4.22L-1.66 4.22Q0.45-0.06 2.37-9.92L2.37-9.92L8.58-42.24L22.46-42.24L16.26-9.92L16.26-9.92Q13.89 2.62 9.98 7.55L9.98 7.55L9.98 7.55Q7.94 10.11 5.34 11.14L5.34 11.14L5.34 11.14Q2.75 12.16-0.06 12.16L-0.06 12.16L-0.06 12.16Q-2.88 12.16-4.70 11.14L-4.70 11.14L-4.70 11.14Q-6.53 10.11-6.98 8.83ZM36.93 0L23.30 0L30.59-38.91L31.30-42.24L44.99-42.24L36.93 0ZM62.91-3.78L62.91-3.78L62.91-3.78Q61.18 1.28 54.53 1.28L54.53 1.28L54.53 1.28Q49.60 1.28 46.21-4.61L46.21-4.61L46.21-4.61Q42.75-10.50 42.11-20.10L42.11-20.10L42.11-20.10Q49.15-32.96 54.02-38.27L54.02-38.27L54.02-38.27Q58.69-43.33 63.55-43.33L63.55-43.33L63.55-43.33Q66.18-43.33 68.06-41.92L68.06-41.92L68.06-41.92Q69.95-40.51 70.40-38.27L70.40-38.27L70.40-38.27Q68.22-37.38 67.20-36.67L67.20-36.67L67.20-36.67Q64.64-34.75 61.18-30.46L61.18-30.46L55.36-23.49L55.36-23.49Q53.95-21.82 53.38-21.06L53.38-21.06L53.38-21.06Q54.34-15.68 57.22-10.37L57.22-10.37L57.22-10.37Q59.97-5.31 62.91-3.78ZM93.38-42.69L93.38-42.69L93.38-42.69Q109.06-42.69 109.06-31.62L109.06-31.62L109.06-31.62Q109.06-25.54 105.15-21.89L105.15-21.89L105.15-21.89Q101.31-18.24 94.59-18.24L94.59-18.24L94.59-18.24Q91.46-18.24 89.02-20.03L89.02-20.03L89.02-20.03Q87.87-20.80 87.10-21.82L87.10-21.82L87.10-21.82Q91.78-21.82 94.24-24.67L94.24-24.67L94.24-24.67Q96.70-27.52 96.70-33.09L96.70-33.09L96.70-33.09Q96.70-38.66 91.20-38.66L91.20-38.66L89.66-38.66L89.66-38.66Q89.28-38.66 88.96-38.59L88.96-38.59L81.60 0L67.71 0L75.58-41.92L75.58-41.92Q82.43-42.56 86.40-42.62L86.40-42.62L86.40-42.62Q90.37-42.69 93.38-42.69ZM146.43-4.80L146.43-4.80L146.43-4.80Q146.43-9.28 148.22-18.24L148.22-18.24L138.75-18.24L135.23 0L121.86 0L129.98-42.24L143.49-42.24L139.78-23.36L149.25-23.36L152.77-42.24L166.27-42.24L166.27-42.24Q165.38-37.50 164.22-32.19L164.22-32.19L162.05-21.76L162.05-21.76Q159.62-9.60 159.62-4.29L159.62-4.29L159.62-4.29Q159.62-2.11 160.32-0.90L160.32-0.90L160.32-0.90Q157.12 1.28 153.38 1.28L153.38 1.28L153.38 1.28Q149.63 1.28 148.03-0.51L148.03-0.51L148.03-0.51Q146.43-2.30 146.43-4.80ZM173.89 0L177.60-18.82L177.60-18.82Q175.74-36.16 169.22-39.87L169.22-39.87L169.22-39.87Q170.56-41.54 172.74-42.46L172.74-42.46L172.74-42.46Q174.91-43.39 177.54-43.39L177.54-43.39L177.54-43.39Q180.16-43.39 182.14-42.46L182.14-42.46L182.14-42.46Q184.13-41.54 185.41-39.55L185.41-39.55L185.41-39.55Q187.84-35.78 187.84-26.75L187.84-26.75L187.84-22.14L187.84-22.14Q191.68-33.41 195.52-38.27L195.52-38.27L195.52-38.27Q199.42-43.26 204.29-43.26L204.29-43.26L204.29-43.26Q206.21-43.26 207.49-42.27L207.49-42.27L207.49-42.27Q208.77-41.28 209.41-39.81L209.41-39.81L209.41-39.81Q204.48-37.63 199.74-31.36L199.74-31.36L199.74-31.36Q195.01-25.09 191.94-16.32L191.94-16.32L188.16 0L173.89 0ZM247.49-26.56L247.49-26.56L247.49-26.56Q247.49 0.70 217.92 0.70L217.92 0.70L217.92 0.70Q213.18 0.70 205.38-0.45L205.38-0.45L212.54-38.27L212.54-38.27Q213.06-40.83 213.38-42.30L213.38-42.30L213.38-42.30Q223.10-43.01 227.42-43.01L227.42-43.01L227.42-43.01Q231.74-43.01 235.71-42.11L235.71-42.11L235.71-42.11Q239.68-41.22 242.30-39.23L242.30-39.23L242.30-39.23Q247.49-35.33 247.49-26.56ZM234.30-28.93L234.30-28.93L234.30-28.93Q234.30-38.46 227.46-38.46L227.46-38.46L226.82-38.46L226.82-38.46Q226.50-38.46 226.18-38.40L226.18-38.40L219.58-4.03L219.58-4.03Q219.84-3.90 220.10-3.90L220.10-3.90L220.61-3.90L220.61-3.90Q222.98-3.90 225.44-5.38L225.44-5.38L225.44-5.38Q227.90-6.85 229.82-9.86L229.82-9.86L229.82-9.86Q234.30-16.83 234.30-28.93Z" fill="#f00" stroke="#0f0" stroke-width="1.8"></path></g></g><g><g transform="translate(126.1448712348938, 102.77499961853027)"><path d="M-6.98 8.83L-6.98 8.83L-6.98 8.83Q-3.71 8.45-1.66 4.22L-1.66 4.22L-1.66 4.22Q0.45-0.06 2.37-9.92L2.37-9.92L8.58-42.24L22.46-42.24L16.26-9.92L16.26-9.92Q13.89 2.62 9.98 7.55L9.98 7.55L9.98 7.55Q7.94 10.11 5.34 11.14L5.34 11.14L5.34 11.14Q2.75 12.16-0.06 12.16L-0.06 12.16L-0.06 12.16Q-2.88 12.16-4.70 11.14L-4.70 11.14L-4.70 11.14Q-6.53 10.11-6.98 8.83ZM36.93 0L23.30 0L30.59-38.91L31.30-42.24L44.99-42.24L36.93 0ZM62.91-3.78L62.91-3.78L62.91-3.78Q61.18 1.28 54.53 1.28L54.53 1.28L54.53 1.28Q49.60 1.28 46.21-4.61L46.21-4.61L46.21-4.61Q42.75-10.50 42.11-20.10L42.11-20.10L42.11-20.10Q49.15-32.96 54.02-38.27L54.02-38.27L54.02-38.27Q58.69-43.33 63.55-43.33L63.55-43.33L63.55-43.33Q66.18-43.33 68.06-41.92L68.06-41.92L68.06-41.92Q69.95-40.51 70.40-38.27L70.40-38.27L70.40-38.27Q68.22-37.38 67.20-36.67L67.20-36.67L67.20-36.67Q64.64-34.75 61.18-30.46L61.18-30.46L55.36-23.49L55.36-23.49Q53.95-21.82 53.38-21.06L53.38-21.06L53.38-21.06Q54.34-15.68 57.22-10.37L57.22-10.37L57.22-10.37Q59.97-5.31 62.91-3.78ZM93.38-42.69L93.38-42.69L93.38-42.69Q109.06-42.69 109.06-31.62L109.06-31.62L109.06-31.62Q109.06-25.54 105.15-21.89L105.15-21.89L105.15-21.89Q101.31-18.24 94.59-18.24L94.59-18.24L94.59-18.24Q91.46-18.24 89.02-20.03L89.02-20.03L89.02-20.03Q87.87-20.80 87.10-21.82L87.10-21.82L87.10-21.82Q91.78-21.82 94.24-24.67L94.24-24.67L94.24-24.67Q96.70-27.52 96.70-33.09L96.70-33.09L96.70-33.09Q96.70-38.66 91.20-38.66L91.20-38.66L89.66-38.66L89.66-38.66Q89.28-38.66 88.96-38.59L88.96-38.59L81.60 0L67.71 0L75.58-41.92L75.58-41.92Q82.43-42.56 86.40-42.62L86.40-42.62L86.40-42.62Q90.37-42.69 93.38-42.69ZM146.43-4.80L146.43-4.80L146.43-4.80Q146.43-9.28 148.22-18.24L148.22-18.24L138.75-18.24L135.23 0L121.86 0L129.98-42.24L143.49-42.24L139.78-23.36L149.25-23.36L152.77-42.24L166.27-42.24L166.27-42.24Q165.38-37.50 164.22-32.19L164.22-32.19L162.05-21.76L162.05-21.76Q159.62-9.60 159.62-4.29L159.62-4.29L159.62-4.29Q159.62-2.11 160.32-0.90L160.32-0.90L160.32-0.90Q157.12 1.28 153.38 1.28L153.38 1.28L153.38 1.28Q149.63 1.28 148.03-0.51L148.03-0.51L148.03-0.51Q146.43-2.30 146.43-4.80ZM173.89 0L177.60-18.82L177.60-18.82Q175.74-36.16 169.22-39.87L169.22-39.87L169.22-39.87Q170.56-41.54 172.74-42.46L172.74-42.46L172.74-42.46Q174.91-43.39 177.54-43.39L177.54-43.39L177.54-43.39Q180.16-43.39 182.14-42.46L182.14-42.46L182.14-42.46Q184.13-41.54 185.41-39.55L185.41-39.55L185.41-39.55Q187.84-35.78 187.84-26.75L187.84-26.75L187.84-22.14L187.84-22.14Q191.68-33.41 195.52-38.27L195.52-38.27L195.52-38.27Q199.42-43.26 204.29-43.26L204.29-43.26L204.29-43.26Q206.21-43.26 207.49-42.27L207.49-42.27L207.49-42.27Q208.77-41.28 209.41-39.81L209.41-39.81L209.41-39.81Q204.48-37.63 199.74-31.36L199.74-31.36L199.74-31.36Q195.01-25.09 191.94-16.32L191.94-16.32L188.16 0L173.89 0ZM247.49-26.56L247.49-26.56L247.49-26.56Q247.49 0.70 217.92 0.70L217.92 0.70L217.92 0.70Q213.18 0.70 205.38-0.45L205.38-0.45L212.54-38.27L212.54-38.27Q213.06-40.83 213.38-42.30L213.38-42.30L213.38-42.30Q223.10-43.01 227.42-43.01L227.42-43.01L227.42-43.01Q231.74-43.01 235.71-42.11L235.71-42.11L235.71-42.11Q239.68-41.22 242.30-39.23L242.30-39.23L242.30-39.23Q247.49-35.33 247.49-26.56ZM234.30-28.93L234.30-28.93L234.30-28.93Q234.30-38.46 227.46-38.46L227.46-38.46L226.82-38.46L226.82-38.46Q226.50-38.46 226.18-38.40L226.18-38.40L219.58-4.03L219.58-4.03Q219.84-3.90 220.10-3.90L220.10-3.90L220.61-3.90L220.61-3.90Q222.98-3.90 225.44-5.38L225.44-5.38L225.44-5.38Q227.90-6.85 229.82-9.86L229.82-9.86L229.82-9.86Q234.30-16.83 234.30-28.93Z" fill="none" stroke="#fff" stroke-width="2.1"></path></g></g></g><style>text {
  font-size: 64px;
  font-family: Arial Black;
  dominant-baseline: central;
  text-anchor: middle;
}</style></svg>